<?xml version="1.0" standalone="no"?>
<!DOCTYPE svg PUBLIC "-//W3C//DTD SVG 20010904//EN"
 "http://www.w3.org/TR/2001/REC-SVG-20010904/DTD/svg10.dtd">
<svg version="1.0" xmlns="http://www.w3.org/2000/svg"
 width="890.000000pt" height="385.000000pt" viewBox="0 0 890.000000 385.000000"
 preserveAspectRatio="xMidYMid meet">
<metadata>
Created by potrace 1.16, written by Peter Selinger 2001-2019
</metadata>
<g transform="translate(0.000000,385.000000) scale(0.100000,-0.100000)"
fill="#000000" stroke="none">
<path d="M4918 3261 c-21 -47 -41 -108 -44 -134 -8 -58 -48 -97 -98 -97 -42 0
-68 28 -77 83 -6 41 -7 41 -8 -16 -1 -66 18 -120 47 -136 65 -35 126 12 147
110 7 37 25 89 39 117 30 58 45 120 37 144 -4 10 -19 -14 -43 -71z"/>
<path d="M1655 3203 c-161 -15 -408 -82 -488 -133 -26 -16 -53 -30 -61 -30 -8
0 -20 -44 -35 -137 -12 -76 -25 -148 -28 -160 -3 -13 -1 -23 5 -23 5 0 19 50
31 111 11 61 23 115 26 120 13 20 137 79 228 108 123 39 258 63 367 65 83 1
85 2 94 29 6 17 6 30 0 36 -12 11 -87 19 -139 14z"/>
<path d="M2020 3157 c0 -43 -54 -132 -120 -197 -114 -114 -339 -249 -616 -370
l-122 -53 28 -24 c15 -12 32 -23 37 -23 15 0 221 94 318 146 319 169 470 319
483 480 2 35 2 64 -2 64 -3 0 -6 -10 -6 -23z"/>
<path d="M8053 2763 c-25 -26 -93 -31 -136 -12 -26 12 -64 -2 -117 -43 -56
-43 -224 -216 -245 -253 -32 -54 -57 -153 -48 -190 6 -29 7 -29 15 14 4 24 22
69 40 99 34 56 232 253 279 278 17 8 55 13 107 11 76 -2 83 0 107 24 20 20 26
34 23 60 l-3 34 -22 -22z"/>
<path d="M3156 2558 c-58 -100 -192 -218 -311 -274 -90 -43 -225 -81 -337 -96
-97 -14 -96 -13 -82 -87 5 -25 9 -29 18 -17 6 8 52 22 101 31 207 37 348 97
466 198 119 101 173 180 167 243 l-3 36 -19 -34z"/>
<path d="M7006 2558 c-58 -100 -192 -218 -311 -274 -90 -43 -225 -81 -337 -96
l-88 -12 1 -31 c1 -16 4 -41 8 -55 6 -20 8 -22 13 -8 5 11 24 19 55 23 82 12
215 46 294 76 103 40 189 97 275 183 82 82 117 141 112 193 l-3 35 -19 -34z"/>
<path d="M4145 2534 c-11 -20 -35 -48 -54 -63 -30 -22 -43 -26 -94 -23 -48 2
-68 -2 -101 -22 -146 -86 -318 -394 -277 -496 9 -24 10 -24 11 10 2 77 90 234
189 338 73 75 105 92 176 92 66 0 95 14 138 66 30 36 47 75 47 110 0 34 -12
30 -35 -12z"/>
<path d="M2780 2516 c-25 -7 -67 -22 -94 -34 -49 -22 -180 -111 -174 -118 3
-2 46 8 97 21 97 26 236 92 267 126 17 18 16 19 -17 18 -19 0 -54 -6 -79 -13z"/>
<path d="M6630 2516 c-25 -7 -67 -22 -94 -34 -49 -22 -180 -111 -174 -118 3
-2 46 8 97 21 97 26 236 92 267 126 17 18 16 19 -17 18 -19 0 -54 -6 -79 -13z"/>
<path d="M5501 2458 c-18 -91 -50 -288 -66 -413 -8 -66 -18 -135 -21 -153 -3
-21 -1 -32 4 -28 6 3 13 30 17 59 4 28 18 124 31 212 41 269 49 294 94 280 55
-18 150 -134 150 -184 0 -21 2 -23 10 -11 28 43 -6 139 -73 208 -39 40 -103
82 -126 82 -5 0 -14 -24 -20 -52z"/>
<path d="M996 2337 c-14 -161 -26 -476 -19 -495 5 -13 8 3 9 46 2 170 17 382
28 397 10 14 26 5 131 -73 192 -142 365 -249 600 -369 98 -50 375 -173 390
-173 4 0 39 -16 77 -35 85 -43 138 -52 196 -31 41 15 47 14 102 -4 33 -11 79
-20 103 -20 99 0 256 60 407 156 119 75 342 244 365 276 8 12 15 18 16 13 0
-6 5 3 9 18 5 17 5 39 -1 54 l-9 25 -30 -41 c-17 -22 -33 -41 -38 -41 -4 0
-41 -28 -82 -61 -184 -148 -398 -272 -530 -305 -81 -20 -180 -15 -235 14 l-40
20 -25 -20 c-33 -27 -136 -22 -177 8 -16 11 -82 42 -148 68 -387 156 -779 383
-1041 602 l-51 43 -7 -72z"/>
<path d="M7294 2219 c1 -81 6 -104 29 -151 55 -111 155 -179 370 -249 112 -36
123 -38 144 -24 47 31 29 44 -133 99 -71 24 -156 57 -189 73 -130 66 -202 161
-216 283 -7 60 -7 58 -5 -31z"/>
<path d="M5938 2163 c-31 -104 -158 -270 -307 -401 -114 -101 -156 -127 -205
-127 l-41 0 -6 -75 c-4 -41 -9 -210 -12 -375 l-6 -300 9 275 c5 151 13 299 17
329 l8 55 46 11 c68 18 130 64 265 199 176 177 260 319 252 426 l-3 41 -17
-58z"/>
<path d="M6052 2100 c-4 -205 109 -406 273 -486 83 -40 195 -40 305 1 148 55
304 150 502 307 78 63 99 86 113 122 10 25 15 53 11 62 -5 13 -12 8 -36 -25
-17 -22 -33 -41 -38 -41 -4 0 -41 -28 -82 -61 -111 -90 -283 -202 -380 -248
-222 -106 -367 -93 -506 45 -87 88 -139 199 -154 329 l-7 70 -1 -75z"/>
<path d="M4580 1993 c-236 -156 -538 -292 -724 -324 -96 -16 -219 -8 -283 20
-56 25 -136 101 -154 148 -6 16 -15 48 -20 73 -7 37 -8 30 -5 -37 5 -100 37
-168 105 -220 70 -53 164 -77 275 -70 211 14 526 144 811 334 80 53 105 63
105 41 0 -8 3 -9 11 -1 5 5 9 35 7 65 l-3 54 -125 -83z"/>
<path d="M4704 1794 c4 -106 22 -153 70 -179 40 -22 74 -15 117 23 26 24 32
37 36 83 l5 54 -20 -31 c-40 -62 -97 -81 -146 -49 -30 20 -46 59 -57 133 -7
50 -8 45 -5 -34z"/>
<path d="M8053 1736 c-42 -59 -170 -154 -290 -213 -81 -41 -105 -48 -154 -48
-50 0 -62 4 -88 29 l-31 30 0 -36 c0 -68 70 -117 148 -104 63 11 233 102 319
171 100 78 136 128 131 180 l-3 37 -32 -46z"/>
<path d="M1002 1702 c-1 -12 -17 -39 -35 -59 -29 -31 -41 -37 -88 -40 -74 -6
-116 20 -122 74 -3 27 -4 21 -5 -22 -2 -70 13 -100 64 -121 45 -19 70 -18 120
6 53 26 77 71 71 138 -2 26 -4 37 -5 24z"/>
<path d="M5150 665 c0 -56 36 -123 81 -149 75 -42 159 15 159 108 l0 41 -20
-32 c-22 -37 -48 -53 -87 -53 -43 0 -87 33 -111 81 l-21 44 -1 -40z"/>
</g>
</svg>
